<svg xmlns="http://www.w3.org/2000/svg" version="1.1" xmlns:xlink="http://www.w3.org/1999/xlink" xmlns:svgjs="http://svgjs.dev/svgjs" width="128" height="128" viewBox="0 0 128 128"><g transform="matrix(0.8046875,0,0,0.8046875,12.760752631578946,17.075617558859946)"><svg viewBox="0 0 95 87" data-background-color="#ffffff" preserveAspectRatio="xMidYMid meet" height="117" width="128" xmlns="http://www.w3.org/2000/svg" xmlns:xlink="http://www.w3.org/1999/xlink"><g id="tight-bounds" transform="matrix(1,0,0,1,-0.24049999999999727,-0.1384596411471506)"><svg viewBox="0 0 95.481 87.27691928229429" height="87.27691928229429" width="95.481"><g><svg viewBox="0 0 95.481 87.27691928229429" height="87.27691928229429" width="95.481"><g><svg viewBox="0 0 95.481 87.27691928229429" height="87.27691928229429" width="95.481"><g id="textblocktransform"><svg viewBox="0 0 95.481 87.27691928229429" height="87.27691928229429" width="95.481" id="textblock"><g><svg viewBox="0 0 95.481 87.27691928229429" height="87.27691928229429" width="95.481"><g><svg viewBox="0 0 95.481 87.27691928229429" height="87.27691928229429" width="95.481"><g><svg xmlns="http://www.w3.org/2000/svg" xmlns:xlink="http://www.w3.org/1999/xlink" version="1.1" x="0" y="0" viewBox="0.35834390804421673 4 99.05081218596318 90.54" enable-background="new 0 0 100 100" xml:space="preserve" height="87.27691928229429" width="95.481" class="icon-icon-0" data-fill-palette-color="accent" id="icon-0"><g fill="#08c076" data-fill-palette-color="accent"><path d="M98.819 87.668l-31.2-55.42V8.61c0-1.215-0.492-2.401-1.35-3.26C65.41 4.493 64.224 4 63.011 4H36.759c-1.214 0-2.402 0.493-3.261 1.35-0.857 0.859-1.349 2.045-1.349 3.26v23.638l-31.2 55.42c-0.801 1.422-0.786 3.179 0.037 4.588 0.824 1.409 2.347 2.284 3.98 2.284h89.835c1.633 0 3.156-0.875 3.98-2.284C99.605 90.847 99.619 89.09 98.819 87.668zM48.258 50.417c2.861 0 5.18 2.321 5.18 5.18 0 2.861-2.318 5.181-5.18 5.181-2.859 0-5.178-2.319-5.178-5.181C43.08 52.738 45.399 50.417 48.258 50.417zM37.595 43.997c1.925 0 3.486 1.562 3.486 3.487 0 1.926-1.561 3.488-3.486 3.488-1.926 0-3.487-1.562-3.487-3.488C34.107 45.559 35.669 43.997 37.595 43.997zM83.378 82.872c-0.59 1.011-1.671 1.633-2.842 1.633H19.23c-1.168 0-2.251-0.622-2.841-1.633-0.591-1.01-0.601-2.256-0.027-3.276l8.02-14.245c0.202-0.099 0.396-0.208 0.577-0.337l0.001 0.002 0.047-0.03c0.24-0.166 1.431-0.927 3.178-1.602 0.871-0.341 1.882-0.66 2.978-0.889 1.097-0.231 2.276-0.374 3.522-0.374 1.521 0.001 3.146 0.207 4.947 0.772 1.8 0.567 3.788 1.513 5.931 3.065 2.488 1.801 5.036 3.088 7.594 3.918 2.552 0.831 5.104 1.191 7.475 1.188 2.488 0 4.757-0.385 6.717-0.936 2.942-0.831 5.222-2.021 6.809-3.002 0.664-0.412 1.201-0.785 1.616-1.093l7.632 13.561C83.979 80.616 83.969 81.862 83.378 82.872z" fill="#08c076" data-fill-palette-color="accent"></path></g></svg></g></svg></g></svg></g></svg></g></svg></g></svg></g><defs></defs></svg><rect width="95.481" height="87.27691928229429" fill="none" stroke="none" visibility="hidden"></rect></g></svg></g></svg>